<svg id="Multicolor" xmlns="http://www.w3.org/2000/svg" viewBox="0 0 88 84"><defs><style>.cls-1{fill:#e8f4fa;}.cls-13,.cls-2,.cls-5{fill:#656769;}.cls-10,.cls-12,.cls-13,.cls-16,.cls-17,.cls-2,.cls-3,.cls-9{stroke:#45413c;stroke-linejoin:round;}.cls-3,.cls-4{fill:#daedf7;}.cls-6,.cls-9{fill:#87898c;}.cls-7{fill:#ebcb00;}.cls-8{fill:#1a1816;opacity:0.15;}.cls-10,.cls-12{fill:none;}.cls-11{fill:#fff;}.cls-12,.cls-13{stroke-linecap:round;}.cls-14{fill:#00b8f0;}.cls-15{fill:#4acfff;}.cls-16{fill:#bdbec0;}.cls-17{fill:#525252;}</style></defs><title>Drone</title><g id="Background"><g id="New_Symbol_2-2" data-name="New Symbol 2"><circle class="cls-1" cx="44.42" cy="42.02" r="40"/></g></g><g id="Scene"><polygon class="cls-2" points="38.84 41.67 25.8 40.15 25.8 43.84 40.05 45.5 38.84 41.67"/><rect class="cls-3" x="21.03" y="37.35" width="4.77" height="4.21" transform="translate(46.84 78.9) rotate(-180)"/><path class="cls-2" d="M22,41.55H24.8a1,1,0,0,1,1,1V46.1a0,0,0,0,1,0,0H21a0,0,0,0,1,0,0V42.55a1,1,0,0,1,1-1Z" transform="translate(46.84 87.65) rotate(-180)"/><polygon class="cls-2" points="50.03 41.67 63.07 40.15 63.07 43.84 48.83 45.5 50.03 41.67"/><path class="cls-4" d="M75.77,26.45h3.69a1,1,0,0,1,1,1v4.89a0,0,0,0,1,0,0H74.77a0,0,0,0,1,0,0V27.45a1,1,0,0,1,1-1Z"/><path class="cls-5" d="M73.73,32.34l-2.9-3a2,2,0,0,0-1.44-.61h-12a2,2,0,0,0-1.44.61l-2.9,3,0,5H80.46v-5Z"/><path class="cls-6" d="M70.83,29.33a2,2,0,0,0-1.44-.61h-12a2,2,0,0,0-1.44.61l-2.9,3H73.73Z"/><rect class="cls-7" x="60.65" y="28.72" width="1.55" height="8.63"/><rect class="cls-7" x="63.94" y="28.72" width="1.55" height="8.63"/><ellipse class="cls-8" cx="42.72" cy="68.26" rx="21.22" ry="2.81"/><path class="cls-9" d="M50.4,45.86a2.24,2.24,0,0,1-2.14,1.57H40.62a2.24,2.24,0,0,1-2.14-1.57l-2.67-8.51H53.07Z"/><path class="cls-10" d="M73.73,32.34l-2.9-3a2,2,0,0,0-1.44-.61h-12a2,2,0,0,0-1.44.61l-2.9,3,0,5H80.46v-5Z"/><path class="cls-2" d="M80.46,37.35h-4L73.3,47.64a.56.56,0,0,0,.54.72h2.85a.56.56,0,0,0,.54-.4Z"/><path class="cls-11" d="M79.34,26.45H75.9a1.12,1.12,0,0,0-1.12,1.12v1.15h5.69V27.57A1.12,1.12,0,0,0,79.34,26.45Z"/><path class="cls-12" d="M75.77,26.45h3.69a1,1,0,0,1,1,1v4.89a0,0,0,0,1,0,0H74.77a0,0,0,0,1,0,0V27.45a1,1,0,0,1,1-1Z"/><path class="cls-13" d="M87,23.07a7.56,7.56,0,0,1-9.35,0,7.56,7.56,0,0,1,9.35,0Z"/><path class="cls-13" d="M68.26,23.07a7.56,7.56,0,0,0,9.35,0,7.56,7.56,0,0,0-9.35,0Z"/><line class="cls-12" x1="77.62" y1="21.83" x2="77.62" y2="26.45"/><path class="cls-4" d="M8.38,26.45h5.69a0,0,0,0,1,0,0v4.89a1,1,0,0,1-1,1H9.38a1,1,0,0,1-1-1V26.45a0,0,0,0,1,0,0Z" transform="translate(22.46 58.79) rotate(-180)"/><path class="cls-5" d="M15.12,32.34l2.9-3a2,2,0,0,1,1.44-.61h12a2,2,0,0,1,1.44.61l2.9,3,0,5H8.38v-5Z"/><path class="cls-6" d="M18,29.33a2,2,0,0,1,1.44-.61h12a2,2,0,0,1,1.44.61l2.9,3H15.12Z"/><rect class="cls-7" x="26.65" y="28.72" width="1.55" height="8.63" transform="translate(54.85 66.07) rotate(-180)"/><rect class="cls-7" x="23.35" y="28.72" width="1.55" height="8.63" transform="translate(48.26 66.07) rotate(-180)"/><path class="cls-10" d="M15.12,32.34l2.9-3a2,2,0,0,1,1.44-.61h12a2,2,0,0,1,1.44.61l2.9,3,0,5H8.38v-5Z"/><path class="cls-2" d="M8.38,37.35h4l3.14,10.29a.56.56,0,0,1-.54.72H12.17a.56.56,0,0,1-.54-.4Z"/><path class="cls-11" d="M9.51,26.45H13a1.12,1.12,0,0,1,1.12,1.12v1.15H8.38V27.57A1.12,1.12,0,0,1,9.51,26.45Z"/><path class="cls-12" d="M8.38,26.45h5.69a0,0,0,0,1,0,0v4.89a1,1,0,0,1-1,1H9.38a1,1,0,0,1-1-1V26.45a0,0,0,0,1,0,0Z" transform="translate(22.46 58.79) rotate(-180)"/><path class="cls-13" d="M1.88,23.07a8.55,8.55,0,0,0,4.68,1.62,8.55,8.55,0,0,0,4.68-1.62,8.55,8.55,0,0,0-4.68-1.62A8.55,8.55,0,0,0,1.88,23.07Z"/><path class="cls-13" d="M20.58,23.07a8.55,8.55,0,0,1-4.68,1.62,8.55,8.55,0,0,1-4.68-1.62,8.55,8.55,0,0,1,4.68-1.62A8.55,8.55,0,0,1,20.58,23.07Z"/><line class="cls-12" x1="11.23" y1="21.83" x2="11.23" y2="26.45"/><circle class="cls-14" cx="44.44" cy="42.39" r="2.55"/><path class="cls-15" d="M44.44,39.84a2.55,2.55,0,0,0-1.73,4.42l3.6-3.6A2.54,2.54,0,0,0,44.44,39.84Z"/><circle class="cls-10" cx="44.44" cy="42.39" r="2.55"/><path class="cls-16" d="M44.44,24.92c-4.32,0-8.63,2.46-8.63,4H53.07C53.07,27.38,48.76,24.92,44.44,24.92Z"/><rect class="cls-9" x="35.81" y="28.94" width="17.26" height="8.4"/><rect class="cls-3" x="63.07" y="37.35" width="4.77" height="4.21"/><path class="cls-2" d="M63.07,41.55h4.77a0,0,0,0,1,0,0V45.1a1,1,0,0,1-1,1H64.07a1,1,0,0,1-1-1V41.55A0,0,0,0,1,63.07,41.55Z"/><circle class="cls-17" cx="49.69" cy="33.35" r="1.39"/><circle class="cls-17" cx="39.29" cy="33.35" r="1.39"/></g></svg>